<?xml version="1.0" encoding="UTF-8"?>
<svg width="320px" height="320px" viewBox="0 0 320 320" version="1.1" xmlns="http://www.w3.org/2000/svg" xmlns:xlink="http://www.w3.org/1999/xlink">
    <!-- Generator: Sketch 62 (91390) - https://sketch.com -->
    <title>end-to-end-dk</title>
    <desc>Created with Sketch.</desc>
    <g id="end-to-end-dk" stroke="none" stroke-width="1" fill="none" fill-rule="evenodd">
        <rect fill="#FFFFFF" x="0" y="0" width="320" height="320"></rect>
        <g id="Group" transform="translate(49.000000, 51.000000)" stroke="#333333">
            <path d="M36.8027887,30.7561697 C35.3850867,33.0980855 33.3450009,35.0211971 30.9117663,36.2960187 C30.7587981,36.3761619 30.6046078,36.4535691 30.449659,36.5283083 C30.4236162,36.7120168 30.4008911,36.8943989 30.3815239,37.0754396 C30.317704,37.6720146 30.2864404,38.2905396 30.2864404,38.9301808 C30.2864404,40.1235319 29.6569949,41.0227396 28.7325214,41.6563154 C27.4946784,42.504655 25.7552277,42.906521 24.0252821,42.906521 C22.2953365,42.906521 20.5558859,42.504655 19.3180428,41.6563154 C18.3935694,41.0227396 17.7641239,40.1235319 17.7641239,38.9301808 C17.7641239,38.3410919 17.7352002,37.749289 17.6772872,37.1547751 C17.6590267,36.9673203 17.6379904,36.7806863 17.6139178,36.5947179 C17.4539298,36.5198826 17.2951056,36.4421418 17.1375309,36.3615095 C14.6693626,35.0985267 12.5972635,33.1719246 11.1563549,30.8172262 C9.76337454,28.540851 8.96095011,25.8641028 8.96095011,23 C8.96095011,18.8578644 10.6398823,15.1078644 13.3543484,12.3933983 C16.0688145,9.67893219 19.8188145,8 23.9609501,8 C28.1030857,8 31.8530857,9.67893219 34.5675518,12.3933983 C37.2820179,15.1078644 38.9609501,18.8578644 38.9609501,23 C38.9609501,25.8385274 38.1728011,28.4930328 36.8027887,30.7561697 Z" id="light-bulb" stroke-width="2"></path>
            <g id="light" fill="#D8D8D8">
                <rect id="Rectangle" x="23.4609501" y="0.5" width="1" height="3" rx="0.5"></rect>
                <rect id="Rectangle" transform="translate(40.770327, 10.094969) rotate(51.000000) translate(-40.770327, -10.094969) " x="40.270327" y="8.59496926" width="1" height="3" rx="0.5"></rect>
                <rect id="Rectangle" transform="translate(44.921900, 28.284200) rotate(103.000000) translate(-44.921900, -28.284200) " x="44.4219002" y="26.7842001" width="1" height="3" rx="0.5"></rect>
                <rect id="Rectangle" transform="translate(33.289451, 42.870831) rotate(154.000000) translate(-33.289451, -42.870831) " x="32.7894505" y="41.3708307" width="1" height="3" rx="0.5"></rect>
                <rect id="Rectangle" transform="translate(14.632450, 42.870831) rotate(206.000000) translate(-14.632450, -42.870831) " x="14.1324497" y="41.3708307" width="1" height="3" rx="0.5"></rect>
                <rect id="Rectangle" transform="translate(3.000000, 28.284200) rotate(257.000000) translate(-3.000000, -28.284200) " x="2.5" y="26.7842001" width="1" height="3" rx="0.5"></rect>
                <rect id="Rectangle" transform="translate(7.151573, 10.094969) rotate(309.000000) translate(-7.151573, -10.094969) " x="6.65157324" y="8.59496926" width="1" height="3" rx="0.5"></rect>
            </g>
            <path d="M23.9609501,12.130756 C26.6288777,11.8851612 29.1465324,12.7295329 31.5139142,14.6638709 C33.8812959,16.598209 35.0649868,19.3769187 35.0649868,23" id="Path" stroke-width="2" stroke-linecap="round"></path>
        </g>
        <path d="M77,105.189175 C76.3073001,119.187297 92.3757083,127.457572 125.205225,130 C191.403588,135.126624 248.68632,127.917686 251,156.850859 C254.266015,197.69322 76.9609501,194.059041 75.9609501,225.483107 C75.2942834,246.432484 117.505758,254.596337 202.595374,249.974665" id="Path-2" stroke="#333333" stroke-width="2" stroke-linecap="round"></path>
        <g id="Group-2" transform="translate(220.000000, 225.000000)" stroke="#333333">
            <rect id="Rectangle" stroke-width="2" x="1" y="12" width="38" height="12" rx="2"></rect>
            <rect id="Rectangle" stroke-width="2" x="6" y="24" width="28" height="18" rx="2"></rect>
            <path d="M20.0159608,10.9973231 C17.1454095,7.10818861 14.6454095,4.32892678 12.5159608,2.65953757 C9.32178766,0.155453763 4.35552741,1.39015619 5.01596077,5.44500736 C5.45624968,8.14824147 10.4562497,9.99901337 20.0159608,10.9973231 Z" id="Path-3" stroke-width="2" stroke-linejoin="bevel" transform="translate(12.486097, 6.181095) rotate(7.000000) translate(-12.486097, -6.181095) "></path>
            <path d="M34.0597282,10.6324562 C31.189177,6.74332174 28.689177,3.96405991 26.5597282,2.2946707 C23.3655551,-0.209413108 18.3992949,1.02528932 19.0597282,5.08014049 C19.5000171,7.7833746 24.5000171,9.6341465 34.0597282,10.6324562 Z" id="Path-3-Copy" stroke-width="2" stroke-linejoin="bevel" transform="translate(26.529864, 5.816228) scale(-1, 1) rotate(7.000000) translate(-26.529864, -5.816228) "></path>
            <rect id="Rectangle" fill="#D8D8D8" x="19.5" y="25.5" width="1" height="16"></rect>
        </g>
        <path d="M113.74406,201.28808 C127.001716,185.213114 135.330824,176.530992 138.731384,175.241712 C142.131944,173.952432 144.620102,178.533324 146.195859,188.984387 C159.130174,196.801702 160.55961,199.433404 150.484166,196.879492 C135.371001,193.048624 113.561865,173.070461 108.905483,179.532065 C104.249102,185.99367 121.377403,217.15635 133.547217,220.382691 C145.717031,223.609032 161.381601,201.121994 164.249693,194.204376 C167.117785,187.286759 160.853513,178.486017 150.484166,179.532065 C140.114819,180.578114 130.329132,193.656595 128.485762,197.812202 C126.642392,201.967809 138.731384,212.484419 138.731384,206.026986 C138.731384,199.569554 134.868025,179.532065 128.485762,179.532065 C122.103498,179.532065 106.937095,196.594637 113.74406,206.026986 C120.551025,215.459336 148.56214,216.463554 154.053667,214.961278 C159.545193,213.459002 157.164048,203.968756 143.772973,197.812202 C130.381897,191.655647 106.978759,179.850531 108.905483,194.204376 C110.832208,208.558221 125.997536,202.585662 128.485762,206.026986 C130.144579,208.321202 128.620532,211.2993 123.913621,214.961278 L141.871904,201.685948 C156.864882,186.789439 164.324145,181.275316 164.249693,185.143579 C164.138015,190.945974 153.254863,223.0943 141.512049,220.382691 C129.769235,217.671082 128.590792,178.173397 121.368961,175.241712 C114.147131,172.310027 104.699706,196.836797 106.148605,206.026986 C107.114538,212.153779 114.560257,216.939014 128.485762,220.382691 C149.509525,216.657483 160.578195,211.872248 161.691773,206.026986 C163.362141,197.259094 145.624543,184.203885 135.199149,185.143579 C128.248887,185.770042 122.801723,194.01813 118.857658,209.887844 L141.512049,209.887844" id="Path-4" stroke="#CFEEE8" stroke-width="2" transform="translate(135.473051, 197.848679) rotate(-49.000000) translate(-135.473051, -197.848679) "></path>
        <circle id="Oval" fill="#333333" cx="204" cy="249" r="4"></circle>
        <circle id="Oval-Copy" fill="#333333" cx="76" cy="105" r="4"></circle>
        <path d="M205.886776,209.012398 C206.591535,209.277841 207.283087,209.4094 207.976309,209.4094 C208.644556,209.4094 209.32341,209.287691 210.025934,209.031989 C209.803286,209.698088 209.69497,210.351738 209.694966,211.00125 C209.694961,211.702453 209.821234,212.407604 210.080107,213.126927 C209.377075,212.888954 208.685268,212.773262 207.998046,212.773266 C207.237089,212.773271 206.472475,212.915228 205.695284,213.205595 C206.00737,212.388466 206.16136,211.599077 206.16136,210.819169 C206.16136,210.219787 206.071946,209.620108 205.886776,209.012398 Z" id="Rectangle" stroke="#CFEEE8" stroke-width="2" fill="#D8D8D8" transform="translate(208.000030, 211.000000) rotate(-45.000000) translate(-208.000030, -211.000000) "></path>
        <path d="M219.621705,264.754577 C220.756584,265.282497 221.859747,265.545844 222.968372,265.545844 C224.042806,265.545844 225.136194,265.299315 226.281735,264.780124 C225.81872,265.875514 225.593237,266.941914 225.59323,268.001629 C225.593223,269.125683 225.846962,270.255532 226.366253,271.417562 C225.224165,270.933268 224.107045,270.697623 222.997357,270.69763 C221.779301,270.697638 220.556149,270.981718 219.304675,271.56166 C219.913227,270.24839 220.215126,268.995506 220.215126,267.758854 C220.215126,266.763777 220.022215,265.769616 219.621705,264.754577 Z" id="Rectangle-Copy" stroke="#CFEEE8" stroke-width="2" fill="#FFFFFF" transform="translate(223.000000, 267.999960) rotate(-45.000000) translate(-223.000000, -267.999960) "></path>
        <path d="M263.454868,214.599589 C266.026734,216.163947 268.47337,216.955267 270.944721,216.955267 C273.347819,216.955267 275.798369,216.208479 278.433039,214.63518 C276.993035,217.16874 276.28827,219.592334 276.288254,222.002926 C276.288237,224.510062 277.050657,227.026218 278.601743,229.660464 C276.001273,228.189704 273.490842,227.470938 270.995448,227.470954 C268.27931,227.470972 265.55663,228.322818 262.73091,230.050034 C264.492335,227.073517 265.376507,224.306525 265.376507,221.578061 C265.376507,219.275703 264.75184,216.9829 263.454868,214.599589 Z" id="Rectangle-Copy-2" stroke="#CFEEE8" stroke-width="2" fill="#FFFFFF" transform="translate(271.000070, 222.000000) rotate(-45.000000) translate(-271.000070, -222.000000) "></path>
        <path d="M40.4632627,31.4412635 C33.4906324,35.1926062 30.6410378,38.5556903 31.9144788,41.5305158 C33.8246404,45.9927542 46.3105015,49.6335523 47.1174898,46.9858897 C47.9244782,44.338227 39.1955861,31.9965156 34.9896097,31.4412635 C30.7836333,30.8860114 26.8386575,40.9390272 27.3326354,44.3739916 C27.6619539,46.6639679 30.9594297,47.5346006 37.2250626,46.9858897 C44.2636072,42.0802297 46.7865229,38.5653543 44.7938099,36.4412635 C41.8047403,33.2551272 30.1443768,32.9482356 27.3326354,36.4412635 C24.520894,39.9342914 26.2097434,51.5488647 31.9144788,52.4412635 C37.6192142,53.3336623 48.3323033,45.1040973 47.1174898,39.5362328 C45.9026763,33.9683682 29.1250698,26.9253237 27.3326354,31.4412635 C26.1376791,34.45189 30.5145548,42.7385327 40.4632627,56.3011914" id="Path-11" stroke="#FCEDC1" stroke-width="2" stroke-linecap="round"></path>
    </g>
</svg>