<svg width="36" height="36" viewBox="0 0 36 36" fill="none" xmlns="http://www.w3.org/2000/svg">
<rect width="36" height="36" fill="white"/>
<path fill-rule="evenodd" clip-rule="evenodd" d="M29.7314 10.0568C29.9762 10.1846 30.0711 10.4866 29.9434 10.7314L27.0446 16.2871C27.0365 16.3098 27.0267 16.3322 27.0151 16.3541L26.6363 17.0697L22.0021 25.9514C21.9142 26.1199 21.7385 26.2239 21.5485 26.22C21.3586 26.2161 21.1873 26.1049 21.1064 25.933L16.7137 16.5987L11.7609 25.9541C11.6696 26.1266 11.4862 26.2301 11.2914 26.2194C11.0965 26.2086 10.9257 26.0854 10.854 25.9039L5.03515 11.1839C4.93363 10.9271 5.05952 10.6366 5.31632 10.5351C5.57313 10.4336 5.86361 10.5595 5.96512 10.8163L11.3849 24.5269L13.1228 21.2442C13.1221 21.1638 13.1408 21.0821 13.181 21.0061L18.5997 10.7707C18.6249 10.7219 18.6582 10.6771 18.6987 10.6384C18.7446 10.5946 18.7979 10.5605 18.8553 10.5372C18.9207 10.5105 18.9888 10.4986 19.0557 10.5003C19.1226 10.5018 19.1901 10.5168 19.2542 10.5466C19.3105 10.5726 19.3621 10.6091 19.4058 10.655C19.4446 10.6956 19.4757 10.742 19.4985 10.7919L23.889 20.1217L25.751 16.6045L29.0568 10.2688C29.1846 10.024 29.4866 9.92908 29.7314 10.0568ZM23.3207 21.2625L19.0177 12.1186L17.2669 15.4256L21.5819 24.595L23.3207 21.2625Z" fill="#3A3F3E"/>
</svg>
