<svg width="25" height="18" viewBox="0 0 25 18" fill="none" xmlns="http://www.w3.org/2000/svg">
<path fill-rule="evenodd" clip-rule="evenodd" d="M24.7314 0.946769C24.9762 1.07451 25.0711 1.37653 24.9434 1.62135L22.0446 7.17707C22.0365 7.19975 22.0267 7.22212 22.0151 7.24403L21.6363 7.95964L17.0021 16.8414C16.9142 17.0098 16.7385 17.1139 16.5485 17.11C16.3586 17.1061 16.1873 16.9949 16.1064 16.823L11.7137 7.48863L6.76088 16.844C6.66956 17.0165 6.48624 17.1201 6.29138 17.1093C6.09652 17.0986 5.92574 16.9754 5.85399 16.7939L0.0351457 2.07387C-0.06637 1.81706 0.0595175 1.52658 0.316323 1.42507C0.573129 1.32355 0.863606 1.44944 0.965122 1.70625L6.38494 15.4169L8.12283 12.1342C8.12208 12.0538 8.14076 11.9721 8.18101 11.896L13.5997 1.66068C13.6249 1.61188 13.6582 1.56701 13.6987 1.52831C13.7446 1.48456 13.7979 1.45049 13.8553 1.42713C13.9207 1.40042 13.9888 1.38859 14.0557 1.39021C14.1226 1.39173 14.1901 1.40676 14.2542 1.43652C14.3105 1.46256 14.3621 1.49909 14.4058 1.54495C14.4446 1.58552 14.4757 1.63191 14.4985 1.68185L18.889 11.0116L20.751 7.49449L24.0568 1.15876C24.1846 0.913942 24.4866 0.819029 24.7314 0.946769ZM18.3207 12.1524L14.0177 3.00853L12.2669 6.31554L16.5819 15.4849L18.3207 12.1524Z" fill="#3A3F3E"/>
</svg>
