<?xml version="1.0" encoding="UTF-8"?>
<svg width="320px" height="320px" viewBox="0 0 320 320" version="1.1" xmlns="http://www.w3.org/2000/svg" xmlns:xlink="http://www.w3.org/1999/xlink">
    <!-- Generator: Sketch 62 (91390) - https://sketch.com -->
    <title>user-research-color-dk</title>
    <desc>Created with Sketch.</desc>
    <g id="user-research-color-dk" stroke="none" stroke-width="1" fill="none" fill-rule="evenodd">
        <rect fill="#FFFFFF" x="0" y="0" width="320" height="320"></rect>
        <g id="Group-2" transform="translate(62.000000, 61.000000)">
            <g id="Group" transform="translate(0.000000, 80.196022)" stroke="#333333" stroke-width="2">
                <path d="M36.9544977,8.18218712 C35.9733021,8.41157864 34.8009008,8.62739709 33.4379458,8.83188165 C33.0533459,8.88958329 32.6829862,8.94196958 32.3271818,8.98907362 C32.4358748,9.3409521 32.5307116,9.69338395 32.611873,10.0454505 C32.8649175,11.1431211 33,12.3021806 33,13.5 C33,16.9783507 31.8618258,20.1329083 30.0029396,22.4142686 C28.2107311,24.6137973 25.7424227,26 23,26 C20.2575773,26 17.7892689,24.6137973 15.9970604,22.4142686 C14.1381742,20.1329083 13,16.9783507 13,13.5 C13,10.0216493 14.1381742,6.86709168 15.9970604,4.58573141 C17.7892689,2.38620275 20.2575773,1 23,1 C28.0912109,1 30.1917118,3.11437198 32.0667925,4.98059979 C33.5165501,6.42351254 34.8553892,7.73147495 36.9544977,8.18218712 Z" id="Combined-Shape"></path>
                <path d="M23,67.0025664 C15.8957955,67.0025664 9.55158948,67.0221382 5.3989281,65.8480966 C3.93738462,65.4348886 2.76174568,64.8821885 1.98302033,64.0755902 C1.33814881,63.4076368 1,62.5608909 1,61.5 C1,52.754261 3.49525797,44.8302033 7.55281524,39.0966985 C11.5060946,33.5105429 16.9507564,30 23,30 C28.804954,30 34.0353668,33.8479237 37.9380143,39.3625343 C42.2849708,45.5049727 45,53.7612924 45,61.5 C45,62.1681682 44.4911714,62.7265638 43.7624328,63.2501656 C42.7174177,64.0010134 41.1741026,64.6430952 39.2616365,65.1837882 C35.1487256,66.3465915 29.3823296,67.0025664 23,67.0025664 Z" id="Oval"></path>
            </g>
            <g id="Group-Copy" transform="translate(173.000000, 162.196022) scale(-1, 1) translate(-173.000000, -162.196022) translate(150.000000, 128.196022)" stroke="#333333" stroke-width="2">
                <path d="M36.9544977,8.18218712 C35.9733021,8.41157864 34.8009008,8.62739709 33.4379458,8.83188165 C33.0533459,8.88958329 32.6829862,8.94196958 32.3271818,8.98907362 C32.4358748,9.3409521 32.5307116,9.69338395 32.611873,10.0454505 C32.8649175,11.1431211 33,12.3021806 33,13.5 C33,16.9783507 31.8618258,20.1329083 30.0029396,22.4142686 C28.2107311,24.6137973 25.7424227,26 23,26 C20.2575773,26 17.7892689,24.6137973 15.9970604,22.4142686 C14.1381742,20.1329083 13,16.9783507 13,13.5 C13,10.0216493 14.1381742,6.86709168 15.9970604,4.58573141 C17.7892689,2.38620275 20.2575773,1 23,1 C28.0912109,1 30.1917118,3.11437198 32.0667925,4.98059979 C33.5165501,6.42351254 34.8553892,7.73147495 36.9544977,8.18218712 Z" id="Combined-Shape"></path>
                <path d="M23,67.0025664 C15.8957955,67.0025664 9.55158948,67.0221382 5.3989281,65.8480966 C3.93738462,65.4348886 2.76174568,64.8821885 1.98302033,64.0755902 C1.33814881,63.4076368 1,62.5608909 1,61.5 C1,52.754261 3.49525797,44.8302033 7.55281524,39.0966985 C11.5060946,33.5105429 16.9507564,30 23,30 C28.804954,30 34.0353668,33.8479237 37.9380143,39.3625343 C42.2849708,45.5049727 45,53.7612924 45,61.5 C45,62.1681682 44.4911714,62.7265638 43.7624328,63.2501656 C42.7174177,64.0010134 41.1741026,64.6430952 39.2616365,65.1837882 C35.1487256,66.3465915 29.3823296,67.0025664 23,67.0025664 Z" id="Oval"></path>
            </g>
            <path d="M109.769009,33.2976908 L107.217195,65.0203097 C107.133577,66.0593054 106.265996,66.859869 105.223641,66.859869 L105.223641,66.859869 L88.5105541,66.8603027 C89.1324396,51.6435828 94.9217537,38.611078 109.769009,33.2976908 Z" id="Combined-Shape" fill="#FCEDC1"></path>
            <path d="M27.2248601,18.3113189 L40.7594232,62.5290968 C40.9915518,63.2874669 41.649869,63.8370264 42.4375072,63.9299516 L67.2716039,66.859869 L67.2716039,66.859869 L72.570702,83.0696906 L84.3506442,66.859869 L105.223641,66.859869 C106.265996,66.859869 107.133577,66.0593054 107.217195,65.0203097 L112.23991,2.61063008 C112.328519,1.50962044 111.507806,0.545244015 110.406796,0.456635054 C110.229465,0.44236348 110.051022,0.451816282 109.876191,0.484743252 L28.7671138,15.7605032 C27.6816279,15.9649393 26.9673959,17.0106277 27.171832,18.0961136 C27.1855165,18.1687738 27.2032197,18.2406192 27.2248601,18.3113189 Z" id="Path-6" stroke="#333333" stroke-width="2"></path>
            <path d="M164.976918,93.239081 C160.374267,99.4185748 153.584499,103.691886 144.881075,105.383621 L143.402226,119.269765 L132.430142,106.065627 C121.029421,105.251914 109.803917,100.68572 101.670544,93.701615 C94.2929443,87.3664907 89.4535446,79.0318909 89.4535446,69.6960224 C89.4535446,58.5383081 92.0378608,48.3369143 98.8478421,41.3265681 C104.646108,35.357704 113.493796,31.7465511 126.289788,31.7465511 C140.023834,31.7465511 151.312902,35.707014 159.243563,42.3200231 C167.417825,49.1361593 172,58.7667949 172,69.6960224 C172,78.9669843 169.586279,87.0505771 164.976918,93.239081 Z" id="Combined-Shape" stroke="#333333" stroke-width="2"></path>
            <path d="M46,75.1960224 C57.1807793,53.0630231 70.60033,42.6875791 86.2586521,44.0696906 C109.746135,46.1428578 109.2134,83.4670951 131.348239,82.7294463 C146.104798,82.2376805 159.818599,68.3932059 172.489643,41.1960224" id="Path-8" stroke="#333333" stroke-width="2"></path>
        </g>
    </g>
</svg>