<?xml version="1.0" encoding="UTF-8"?>
<svg width="320px" height="320px" viewBox="0 0 320 320" version="1.1" xmlns="http://www.w3.org/2000/svg" xmlns:xlink="http://www.w3.org/1999/xlink">
    <!-- Generator: Sketch 62 (91390) - https://sketch.com -->
    <title>UX evaluation-color-dk</title>
    <desc>Created with Sketch.</desc>
    <g id="UX-evaluation-color-dk" stroke="none" stroke-width="1" fill="none" fill-rule="evenodd">
        <rect fill="#FFFFFF" x="0" y="0" width="320" height="320"></rect>
        <g id="Group-6" transform="translate(78.000000, 67.000000)">
            <g id="Group-5">
                <path d="M144.328783,183.617751 L11.9816728,180.095198 C11.1971656,180.074268 10.4870291,179.752752 9.96352786,179.240502 C9.4400266,178.728252 9.10316052,178.025267 9.06519395,177.241399 L1.19385664,14.7277387 C1.15377882,13.9002816 1.45288842,13.1349151 1.96888175,12.5663933 C2.48487509,11.9978716 3.21775215,11.6261947 4.0374211,11.5864636 L137.56807,6.16197726 C138.395815,6.12835212 139.158826,6.43341998 139.723307,6.95383024 C140.287789,7.4742405 140.65374,8.20999316 140.687258,9.03500408 L147.183117,180.507617 C147.214477,181.33545 146.907323,182.097624 146.385371,182.660679 C145.869721,183.216936 145.144429,183.578854 144.328783,183.617751 Z" id="Rectangle" stroke="#333333" stroke-width="2" fill="#FFFFFF"></path>
                <path d="M91.7168784,16 L43.7168784,16 C42.8884512,16 42.1384512,15.6642136 41.595558,15.1213203 C41.0526648,14.5784271 40.7168784,13.8284271 40.7168784,13 L40.7168784,3 C40.7168784,2.72385763 40.8288072,2.47385763 41.0097716,2.29289322 C41.190736,2.11192881 41.440736,2 41.7168784,2 L93.7168784,2 C93.9930207,2 94.2430207,2.11192881 94.4239851,2.29289322 C94.6049496,2.47385763 94.7168784,2.72385763 94.7168784,3 L94.7168784,13 C94.7168784,13.8284271 94.3810919,14.5784271 93.8381987,15.1213203 C93.2953055,15.6642136 92.5453055,16 91.7168784,16 Z" id="clip" stroke="#333333" stroke-width="2" fill="#CFEEE8" transform="translate(67.716878, 9.000000) rotate(-2.000000) translate(-67.716878, -9.000000) "></path>
                <g id="Group-4" transform="translate(27.716878, 56.000000)">
                    <g id="Group-3">
                        <rect id="Rectangle" stroke="#CFEEE8" stroke-width="2" x="1" y="1" width="14" height="14" rx="2"></rect>
                        <g id="rating" transform="translate(24.000000, 0.000000)" fill="#FCEDC1">
                            <polygon id="Star" points="8 13.0821708 3.29771798 14.472136 3.16656838 9.57047713 0.39154787 5.52786405 5.01277498 3.88843749 8 0 10.987225 3.88843749 15.6084521 5.52786405 12.8334316 9.57047713 12.702282 14.472136"></polygon>
                            <polygon id="Star-Copy" points="28 13.0821708 23.297718 14.472136 23.1665684 9.57047713 20.3915479 5.52786405 25.012775 3.88843749 28 0 30.987225 3.88843749 35.6084521 5.52786405 32.8334316 9.57047713 32.702282 14.472136"></polygon>
                            <polygon id="Star-Copy-2" points="48 13.0821708 43.297718 14.472136 43.1665684 9.57047713 40.3915479 5.52786405 45.012775 3.88843749 48 0 50.987225 3.88843749 55.6084521 5.52786405 52.8334316 9.57047713 52.702282 14.472136"></polygon>
                        </g>
                    </g>
                    <g id="Group-2" transform="translate(0.000000, 32.000000)" stroke-width="2">
                        <rect id="Rectangle-Copy" stroke="#CFEEE8" x="1" y="2" width="14" height="14" rx="2"></rect>
                        <g id="rating" transform="translate(24.000000, 0.000000)" fill="#FCEDC1" stroke="#FCEDC1">
                            <path d="M8,13.0393977 L4.26254448,14.1441662 L4.1583045,10.2482425 L1.95266994,7.03510336 L5.62570161,5.73205862 L8,2.64146089 L10.3742984,5.73205862 L14.0473301,7.03510336 L11.8416955,10.2482425 L11.7374555,14.1441662 L8,13.0393977 Z" id="Star"></path>
                            <path d="M28,13.0393977 L24.2625445,14.1441662 L24.1583045,10.2482425 L21.9526699,7.03510336 L25.6257016,5.73205862 L28,2.64146089 L30.3742984,5.73205862 L34.0473301,7.03510336 L31.8416955,10.2482425 L31.7374555,14.1441662 L28,13.0393977 Z" id="Star-Copy"></path>
                            <path d="M48,13.0393977 L44.2625445,14.1441662 L44.1583045,10.2482425 L41.9526699,7.03510336 L45.6257016,5.73205862 L48,2.64146089 L50.3742984,5.73205862 L54.0473301,7.03510336 L51.8416955,10.2482425 L51.7374555,14.1441662 L48,13.0393977 Z" id="Star-Copy-2"></path>
                            <path d="M67.2239849,12.3772768 L63.4865294,13.4820453 L63.3822894,9.5861216 L61.1766549,6.37298242 L64.8496865,5.06993769 L67.2239849,1.97933996 L69.5982833,5.06993769 L73.271315,6.37298242 L71.0656804,9.5861216 L70.9614404,13.4820453 L67.2239849,12.3772768 Z" id="Star-Copy-3"></path>
                        </g>
                    </g>
                    <g id="Group" transform="translate(0.000000, 65.000000)">
                        <rect id="Rectangle-Copy-2" stroke="#CFEEE8" stroke-width="2" x="1" y="1" width="14" height="14" rx="2"></rect>
                        <g id="rating" transform="translate(24.000000, 0.000000)" fill="#FCEDC1">
                            <polygon id="Star" points="8 13.0821708 3.29771798 14.472136 3.16656838 9.57047713 0.39154787 5.52786405 5.01277498 3.88843749 8 0 10.987225 3.88843749 15.6084521 5.52786405 12.8334316 9.57047713 12.702282 14.472136"></polygon>
                            <polygon id="Star-Copy" points="28 13.0821708 23.297718 14.472136 23.1665684 9.57047713 20.3915479 5.52786405 25.012775 3.88843749 28 0 30.987225 3.88843749 35.6084521 5.52786405 32.8334316 9.57047713 32.702282 14.472136"></polygon>
                        </g>
                    </g>
                </g>
            </g>
            <g id="pen" transform="translate(139.481105, 116.465300) rotate(19.000000) translate(-139.481105, -116.465300) translate(133.481105, 60.465300)" stroke="#333333" stroke-width="2">
                <rect id="Rectangle" fill="#FFFFFF" x="1" y="14" width="10" height="78" rx="2"></rect>
                <rect id="Rectangle" x="1" y="1" width="10" height="10" rx="2"></rect>
                <path d="M10.1738315,96.3162278 L6,108.837722 L1.82616848,96.3162278 C1.73884459,96.0542561 1.76597264,95.7816903 1.88042458,95.5527864 C1.99487652,95.3238825 2.19665235,95.1386406 2.45862401,95.0513167 L9.22514823,95 C9.5012906,95 9.7512906,95.1119288 9.93225501,95.2928932 C10.1132194,95.4738576 10.2251482,95.7238576 10.2251482,96 C10.2251482,96.1074821 10.2078203,96.2142613 10.1738315,96.3162278 Z" id="Rectangle-Copy-4"></path>
            </g>
        </g>
    </g>
</svg>